<?xml version="1.0" encoding="utf-8"?>
<!-- Generator: Adobe Illustrator 24.0.2, SVG Export Plug-In . SVG Version: 6.00 Build 0)  -->
<svg version="1.1" id="Layer_1" xmlns="http://www.w3.org/2000/svg" xmlns:xlink="http://www.w3.org/1999/xlink" x="0px" y="0px"
	 viewBox="0 0 512 512" style="enable-background:new 0 0 512 512;" xml:space="preserve">
<style type="text/css">
	.st0{fill:#FFAB00;}
	.st1{fill:#1B1B1B;}
	.st2{fill:#FEBC12;}
	.st3{fill:#FC8400;}
	.st4{fill:none;stroke:#434343;stroke-miterlimit:10;}
	.st5{fill:none;stroke:#434343;stroke-miterlimit:10;stroke-dasharray:8.25,4.12;}
	.st6{fill:none;stroke:#434343;stroke-miterlimit:10;stroke-dasharray:7.55,3.78;}
	.st7{fill:none;stroke:#434343;stroke-miterlimit:10;stroke-dasharray:7.4,3.7;}
	.st8{fill:none;stroke:#434343;stroke-miterlimit:10;stroke-dasharray:8.49,4.24;}
	.st9{fill:none;stroke:#434343;stroke-miterlimit:10;stroke-dasharray:8.11,4.05;}
	.st10{fill:none;stroke:#434343;stroke-miterlimit:10;stroke-dasharray:7.96,3.98;}
	.st11{fill:#434343;}
	.st12{fill:#FFFFFF;}
</style>
<title>rexballs</title>
<path id="Background" d="M100,0h312c55.2,0,100,44.8,100,100v312c0,55.2-44.8,100-100,100H100C44.8,512,0,467.2,0,412V100
	C0,44.8,44.8,0,100,0z"/>
<g id="Rexensoft">
	<path class="st0" d="M265.6,67.9c-66.3,0-127.7,35-161.4,92l-0.2,0.5c-3,5-5.7,10.2-8.2,15.6l-0.4,0.8c0,0.1-0.1,0.2-0.2,0.2
		c-0.3,0.7-0.6,1.4-1,2.1c-8.5,19.1-13.8,39.5-15.5,60.3c0,0.2-0.1,0.4-0.1,0.6c-0.1,0.4-0.1,0.9-0.2,1.3c-0.2,2.9-0.3,5.7-0.4,8.6
		v0.2c0,1.8-0.1,3.6-0.1,5.5c0,103.6,84,187.6,187.6,187.6s187.6-84,187.6-187.6S369.3,67.9,265.6,67.9z M114.6,185.4v12.5h-12.4
		v-12.5H114.6z"/>
	<path class="st1" d="M268.4,101.7c-48.9-1.2-95.5,20.5-126.1,58.7h-38.4c-3,5-5.7,10.2-8.2,15.6l-0.4,0.8c0,0.1-0.1,0.2-0.2,0.2
		c-0.3,0.7-0.6,1.4-1,2.1h67l0.1,0.1v24.7c0,0,0,0.1-0.1,0.1l0,0h-43.6c-0.1,0-0.1,0-0.1,0.1l0,0c-0.3,12.4-0.1,23.5,0,35.1
		c0,0.1,0,0.1-0.1,0.1h-43l-0.1,0.1c-0.2,3.4-0.5,6.8-0.6,10.2c0,0.1,0,0.1,0.1,0.1h83.1c0.1,0,0.1,0,0.1,0.1l0,0v27
		c0,0.1,0,0.1-0.1,0.1H92c0,0-0.1,0-0.1,0.1l0,0v28.9c0,0,0,0.1,0.1,0.1h25c0,0,0.1,0,0.1,0.1l0,0c1,2.9,2.1,5.7,3.2,8.4
		c23.3,56.4,79.4,96.2,144.8,96.2c87.7,0,158.5-71.2,156.3-158.2C419.5,170.2,351.5,103.3,268.4,101.7z M195.8,278.8
		C195.8,278.9,195.8,278.9,195.8,278.8l-29,0.1c-0.1,0-0.1,0-0.1-0.1l0,0v-28.9c0-0.1,0-0.1,0.1-0.1h28.9c0.1,0,0.1,0,0.1,0.1l0,0
		V278.8z M204.1,212.3C204.1,212.4,204.1,212.4,204.1,212.3L204.1,212.3l-12.3,0.1c0,0-0.1,0-0.1-0.1l0,0l0,0v-12.2
		c0,0,0-0.1,0.1-0.1l0,0H204c0,0,0.1,0,0.1,0.1l0,0l0,0L204.1,212.3z M270.6,359.8C270.6,359.9,270.6,359.9,270.6,359.8l-8.2,0.1
		c0,0-0.1,0-0.1-0.1l0,0v-8.1c0,0,0-0.1,0.1-0.1h8.1c0.1,0,0.1,0,0.1,0.1l0,0V359.8z M293.5,345.4
		C293.5,345.4,293.5,345.4,293.5,345.4l-29,0.1c-0.1,0-0.1,0-0.1-0.1l0,0v-28.9c0,0,0-0.1,0.1-0.1h28.9c0,0,0.1,0,0.1,0.1l0,0
		L293.5,345.4z M303.9,174.9C303.9,174.9,303.8,175,303.9,174.9l-12.3,0.1c0,0-0.1,0-0.1-0.1l0,0v-12.2c0,0,0-0.1,0.1-0.1h12.2
		c0,0,0.1,0,0.1,0.1l0,0L303.9,174.9z M326.7,318.3C326.7,318.4,326.7,318.4,326.7,318.3l-14.4,0.1c-0.1,0-0.1,0-0.1-0.1l0,0v-14.4
		c0-0.1,0-0.1,0.1-0.1h14.3c0.1,0,0.1,0,0.1,0.1l0,0L326.7,318.3z M326.7,156.1C326.7,156.2,326.7,156.2,326.7,156.1l-16.5,0.1
		c-0.1,0-0.1,0-0.1-0.1l0,0v-16.4c0,0,0-0.1,0.1-0.1h16.4c0,0,0.1,0,0.1,0.1l0,0V156.1z M389,249.8h-12.3c-0.1,0-0.1,0-0.1-0.1l0,0
		v-12.3c0-0.1,0-0.1,0.1-0.1H389c0.1,0,0.1,0,0.1,0.1l0,0v12.2C389.2,249.8,389.1,249.8,389,249.8z"/>
	<polygon class="st2" points="212.4,318.3 212.4,318.4 212.3,318.4 	"/>
	<g id="Football">
		<ellipse id="background-footbal" class="st0" cx="263.8" cy="255.6" rx="139" ry="139.3"/>
		<path id="shadow-footbal" class="st3" d="M402.8,255.6c0,76.9-62.3,139.3-139,139.3c-42.6,0-82.8-19.5-109.1-52.9
			c24.8,18.7,55.1,28.7,86.1,28.6c77,0,139.5-60,139.5-134.1c0-41.9-20-79.3-51.2-103.8C374.5,156.9,402.8,204.2,402.8,255.6z"/>
		<g id="line-footbal">
			<path class="st4" d="M158.9,246.4l3.9-0.8"/>
			<path class="st5" d="M166.9,244.9c9.7-1.8,25.8-4.8,34.6-5.6"/>
			<path class="st4" d="M203.5,239c1.3-0.2,2.7-0.1,4,0.2"/>
			<path class="st4" d="M242.6,279.7c0,0-0.2,1.5-0.6,4"/>
			<path class="st6" d="M241.4,287.4c-1.9,11.5-5.4,32.8-7.7,42.7"/>
			<path class="st4" d="M233.2,332c-0.6,2.5-1.1,3.9-1.4,3.5"/>
			<path class="st4" d="M293,258.1l3.3,2.3"/>
			<path class="st7" d="M299.3,262.6c9.3,6.6,26.6,18.7,35.3,23.8"/>
			<path class="st4" d="M336.1,287.3c2,1.1,3.4,1.7,3.7,1.4"/>
			<line class="st4" x1="289.4" y1="204.1" x2="292.7" y2="201.8"/>
			<line class="st8" x1="296.2" y1="199.4" x2="325.8" y2="178.8"/>
			<line class="st4" x1="327.5" y1="177.6" x2="330.8" y2="175.3"/>
			<path class="st4" d="M219.2,148.3c0.2,1.3,0.5,2.6,1,3.9"/>
			<path class="st9" d="M221.5,156c2,5.7,5.9,15.4,13.3,31.8"/>
			<path class="st4" d="M235.6,189.7c0.5,1.2,1.1,2.4,1.6,3.6"/>
			<circle class="st10" cx="257.9" cy="244.6" r="119.7"/>
		</g>
		<g id="patern-footbal">
			<path class="st11" d="M128.8,290.5c0,0,14.6,10.8,21.9,5.4c1.8-12.6,5.7-44.6,9.1-46.8l-16.4-37.8l-14.6,12.6
				C128.8,223.9,119.6,249.1,128.8,290.5z"/>
			<path class="st11" d="M177.8,146.5v10.8c0,0,37.8-9,41.4-5.4c0,0,10.8-16.2,34.2-27c0,0,5.4-1.8-7.2-7.2
				C246.2,117.7,207.5,120.4,177.8,146.5z"/>
			<path class="st11" d="M338,139.3h-21.6c0,0,14.4,32.4,14.4,37.8c0,0,14.4,3.6,41.4,27c0,0,3.6,5.4,12.6-16.2
				C383.9,179.8,349.7,140.2,338,139.3z"/>
			<path class="st11" d="M368.4,344.5c0,0-33.8,1.8-37.6-5.4c0,0,5.6-19.8,7.5-50.4c0,0,32-16.2,37.6-23.4c0,0,9.4,0,18.8,37.8
				C389.3,316.6,376.3,344.1,368.4,344.5z"/>
			<path class="st11" d="M203,380.5c0,0-18-30.6-14.4-37.8c0,0,37.8-7.2,43.2-9c0,0,34.2,27,41.4,27c0,0,5.4,7.2-18,32.4
				C247.1,397.6,207.5,385,203,380.5z"/>
			<path class="st11" d="M206.6,238.3c0,0,23.4-43.2,28.8-45s48.6,7.2,55.8,10.8l3.6,54l-52.2,21.6L206.6,238.3z"/>
		</g>
	</g>
	<rect x="48.2" y="152.1" class="st12" width="145.5" height="12.5"/>
	<rect x="237.4" y="202" class="st12" width="155.9" height="12.5"/>
	
		<rect x="209.3" y="146.4" transform="matrix(0.7071 -0.7071 0.7071 0.7071 -66.7449 206.2444)" class="st12" width="12.5" height="74.6"/>
	<path class="st12" d="M26.9,141.7h28c0.9,0,1.6,0.7,1.6,1.6l0,0v28c0,0.9-0.7,1.6-1.6,1.6h0h-28c-0.9,0-1.6-0.7-1.6-1.6l0,0v-28
		C25.3,142.4,26,141.7,26.9,141.7C26.9,141.7,26.9,141.7,26.9,141.7z"/>
	<rect x="48.2" y="306" class="st12" width="145.5" height="12.5"/>
	<rect x="237.4" y="256.1" class="st12" width="236.3" height="12.5"/>
	
		<rect x="178.3" y="280.6" transform="matrix(0.7071 -0.7071 0.7071 0.7071 -139.708 236.4485)" class="st12" width="74.6" height="12.5"/>
	<path class="st12" d="M470.5,246.7h28c0.9,0,1.6,0.7,1.6,1.6v0v28c0,0.9-0.7,1.6-1.6,1.6l0,0h-28c-0.9,0-1.6-0.7-1.6-1.6l0,0v-28
		C468.9,247.4,469.6,246.7,470.5,246.7z"/>
	<rect x="20.7" y="226.9" class="st12" width="291.4" height="12.5"/>
	<polygon class="st12" points="10.3,313.3 54.7,338.9 54.7,287.7 	"/>
	<polygon class="st12" points="139.1,313.3 166.5,329.1 166.5,297.4 	"/>
	<polygon class="st12" points="319.5,262.3 346.9,278.1 346.9,246.5 	"/>
	<polygon class="st12" points="228.5,197.8 224.1,166.5 199.1,185.9 	"/>
	<polygon class="st12" points="432.3,206.1 387.9,180.6 387.9,231.8 	"/>
</g>
</svg>
